<svg id="Layer_1" data-name="Layer 1" xmlns="http://www.w3.org/2000/svg" viewBox="0 0 18.03 19.5"><defs><style>.cls-1,.cls-3{fill:none;stroke:#9b9b9b;}.cls-2{fill:#9b9b9b;}.cls-3{stroke-linecap:square;}</style></defs><title>calengar</title><g id="Desktop-HD"><g id="Group-2"><rect id="Rectangle-2" class="cls-1" x="0.53" y="2" width="17" height="17" rx="2" ry="2"/><path id="Rectangle-3" class="cls-2" d="M5,0H5a.5.5,0,0,1,.5.5v4A.5.5,0,0,1,5,5H5a.5.5,0,0,1-.5-.5V.5A.5.5,0,0,1,5,0Z"/><path id="Rectangle-3-Copy" class="cls-2" d="M12.74,0h0a.5.5,0,0,1,.5.5v4a.5.5,0,0,1-.5.5h0a.5.5,0,0,1-.5-.5V.5A.5.5,0,0,1,12.74,0Z"/><path id="Line-3" class="cls-3" d="M.5,7H17"/></g></g></svg>