<svg id="Layer_1" data-name="Layer 1" xmlns="http://www.w3.org/2000/svg" viewBox="0 0 19.69 19.5"><defs><style>.cls-1{fill:#9b9b9b;}</style></defs><title>people</title><path class="cls-1" d="M.69,18.77a.58.58,0,0,1-.58-.56l0-1c-.08-3.39-.14-5.84,2-7.61a11.15,11.15,0,0,1,2-1.38A2.22,2.22,0,0,0,4.42,8h0a1.31,1.31,0,0,0,0-.19c0-.14-.13-.32-.36-.62A4.64,4.64,0,0,1,2.92,3.9a3.61,3.61,0,1,1,7.21,0A5.14,5.14,0,0,1,8.91,7.37a2.26,2.26,0,0,0-.31.46c.07.26.11.29.49.51.18.11.4.24.67.43a.58.58,0,0,1-.68.93,6.77,6.77,0,0,0-.58-.37,1.78,1.78,0,0,1-1-1.25A1.66,1.66,0,0,1,8,6.67,4,4,0,0,0,9,3.94a2.47,2.47,0,1,0-4.91,0A3.5,3.5,0,0,0,5,6.49a2.06,2.06,0,0,1,.61,1.38,1.39,1.39,0,0,1-1,1.35A10,10,0,0,0,2.8,10.47c-1.69,1.41-1.64,3.4-1.56,6.69l0,1a.58.58,0,0,1-.56.59Z"/><path class="cls-1" d="M19,19.44h0a.56.56,0,0,1-.55-.57s0-3.67,0-5.44a3.43,3.43,0,0,0-1.77-2.66c-.49-.25-1.3-.66-1.44-1.46a1.83,1.83,0,0,1,.66-1.48,3.06,3.06,0,0,0,.55-3.41,2.43,2.43,0,0,0-1.64-1.08A2,2,0,0,0,13,4c-.81.95-.78,2.13.1,3.7s-.12,2.36-1,2.87l-.12.07a3.09,3.09,0,0,0-1.69,2c-.17.94-.19,2,0,6.21a.56.56,0,0,1-.54.59.56.56,0,0,1-.59-.54c-.19-4.35-.17-5.41,0-6.46a4.11,4.11,0,0,1,2.22-2.73l.13-.07c.92-.55,1-.59.58-1.35-1.11-2-1.1-3.66,0-5a3.16,3.16,0,0,1,2.78-1.09,3.53,3.53,0,0,1,2.51,1.69,4.16,4.16,0,0,1-.72,4.68c-.2.22-.41.39-.39.52s.57.52.79.63a4.49,4.49,0,0,1,2.44,3.65c.07,1.81,0,5.35,0,5.51A.56.56,0,0,1,19,19.44Z"/></svg>