<svg id="Layer_1" data-name="Layer 1" xmlns="http://www.w3.org/2000/svg" viewBox="0 0 20 9.5"><defs><style>.cls-1{fill:#8c6239;}</style></defs><title>Artboard 1 copy 2</title><path class="cls-1" d="M8.82,2.68a3.22,3.22,0,0,0-2.13-.84A2.86,2.86,0,0,0,3.8,4.93,2.66,2.66,0,0,0,6.69,7.74a2.79,2.79,0,0,0,1.9-.67V5.58H6.44V4.17H10V7.7A4.18,4.18,0,0,1,6.69,9.21,4,4,0,0,1,2.25,4.93,4.27,4.27,0,0,1,6.69.39,4.43,4.43,0,0,1,9.81,1.67Z"/><path class="cls-1" d="M11.1,9V.64h6V2.16H12.68V4.45h4.21V5.92H12.68V9Z"/></svg>