<svg id="Layer_1" data-name="Layer 1" xmlns="http://www.w3.org/2000/svg" viewBox="0 0 155 261.78"><defs><style>.cls-1{fill:#28312c;}.cls-2{fill:#f18825;}.cls-3{fill:#fff;}</style></defs><title>map-pin-logo</title><rect class="cls-1" x="35.14" y="156.58" width="86.16" height="86.16" transform="translate(-118.27 113.79) rotate(-45)"/><rect class="cls-1" width="155" height="220"/><g id="Ud8vxg"><path class="cls-2" d="M36.19,63.93C23.83,57.36,22.92,44.87,32,36.29,44.72,42.32,45.7,55.65,36.19,63.93Z"/><path class="cls-2" d="M65.64,94.88c13.09,3.69,16.95,12.93,10.49,25.75-6.93-1.88-12.09-5.53-14-12.94C61.21,104.28,64,95.31,65.64,94.88Z"/><path class="cls-2" d="M54.78,33a17.68,17.68,0,0,1,2.29-15.54c13.11,2.38,17.24,16.38,10,24.46-5.62-.92-9.22-4.64-12.36-9Z"/><path class="cls-2" d="M130.35,69.46c-6.36,9.24-18.41,8.75-24.17-.07C112.69,59.75,124.1,59.93,130.35,69.46Z"/><path class="cls-2" d="M119.58,78.61c-1,11.39-9.4,16.42-19.46,11.86C101.4,79.48,107.93,75.4,119.58,78.61Z"/><path class="cls-2" d="M93.27,25.41c1.41,10.75-3.87,16.12-14.61,15.25C76.36,31.25,82.44,24.74,93.27,25.41Z"/><path class="cls-2" d="M47.77,116.15c-5-8.38.42-18.28,10-18.61C62.11,107,58.1,114.48,47.77,116.15Z"/><path class="cls-2" d="M49.5,76.32c5.84,8.73,3.22,15.75-7.6,19.58-2.92-4.71-3.39-9.45-.48-14.41C42.54,79.2,47,76.57,49.5,76.32Z"/><path class="cls-2" d="M113.53,110.23c-4.12,7.37-8,8.37-14.76,4C100.14,107.4,107.84,105,113.53,110.23Z"/><path class="cls-2" d="M110.38,42.21c7.54,2.65,9.24,6.65,5.9,13.28C109.09,53.32,107.43,49.73,110.38,42.21Z"/><path class="cls-2" d="M133.21,75.39c.38,6.83-3.36,10.05-10.49,9.06C120.87,77.91,125.41,74,133.21,75.39Z"/><path class="cls-2" d="M109.72,31.33c-6.25,4.57-10,3.79-14-2.72C99.9,23.61,105.35,24.57,109.72,31.33Z"/><path class="cls-2" d="M87.43,15.35c6.06-2.45,10.44.63,11,7.76C91.71,25.21,88.3,22.8,87.43,15.35Z"/><path class="cls-2" d="M89.09,109.85c-6.2-4.41-6.69-8.16-2-13.5C93.09,100.29,93.71,104,89.09,109.85Z"/><path class="cls-2" d="M105.7,95.91c1.32,3.88,1.35,7.44-2.49,10q-8.5-5.18-.92-12.62L105.76,96Z"/><path class="cls-2" d="M83.09,25c-5.6-4-6-6.84-1.74-11.91C86.71,16.53,87.23,19.61,83.09,25Z"/><path class="cls-2" d="M42.14,100.17c4,4.89,3.73,7.1-1.39,10.77C36.44,106.59,36.84,103.49,42.14,100.17Z"/><path class="cls-2" d="M127.8,94.4c-5.2,2.66-7.59,1.67-9.9-3.81C122.52,87.47,125.67,88.61,127.8,94.4Z"/><path class="cls-2" d="M47.2,62.27c.81,5.35-.84,7.38-6,7.3C39.84,66.57,44.7,61.31,47.2,62.27Z"/><path class="cls-2" d="M63,16.64c4-4,6.8-4,10.5-.22C69.37,20.81,67.6,20.9,63,16.64Z"/><path class="cls-2" d="M120.85,41.47c5.42-.7,6.67.13,8.32,5.23C124.43,49.18,121.48,47.42,120.85,41.47Z"/><path class="cls-2" d="M129.77,53.9c-2.63,1-5.23,3.24-7.94.16,1.86-5.11,4.06-6,8.7-3.36L129.7,54Z"/><path class="cls-2" d="M53.84,33.37c.22,2.05-.48,3.18-2.77,2.94C48,36,46.45,34.17,46,30.19c4.24-1.24,4.68-1.05,7.91,3.26Z"/><path class="cls-2" d="M62.2,113.13c.4,5.48-.75,6.91-5.82,7.57C55.26,115.51,56.67,113.59,62.2,113.13Z"/><path class="cls-2" d="M33.36,86.17c.13,5.43-.6,6.36-5.64,7.55C25.87,88.88,27.65,86.36,33.36,86.17Z"/><path class="cls-2" d="M47.24,45.45c4.51-3.51,5.94-3.32,9.35,1.27C52.48,50.21,50.71,50,47.24,45.45Z"/><path class="cls-2" d="M99.35,45.61c1.95-4.86,2.74-5.27,8.1-4.18C107.11,46.71,104.11,48.25,99.35,45.61Z"/><path class="cls-2" d="M26.17,77.77c2.84-4.56,4.15-5,8.88-2.67C33.14,80.32,31,81,26.17,77.77Z"/><path class="cls-2" d="M91.79,112.56C91.93,107,92.9,106,98.28,106a4,4,0,0,1-.55,4.91A4.7,4.7,0,0,1,91.79,112.56Z"/><path class="cls-2" d="M128.36,59c4.71.55,5.53,1.71,5.06,7.18C128.65,67.48,126.86,64.93,128.36,59Z"/><path class="cls-2" d="M34.73,65.9c-4.61,3.26-6.5,3-9.67-1C29,61.66,30.91,61.79,34.73,65.9Z"/><path class="cls-2" d="M95.28,32.93c5.13,3.07,5.61,4.68,2.9,8.93C93.31,39.41,92.72,37.76,95.28,32.93Z"/><path class="cls-2" d="M112.2,99.16c4.95,2.34,5.55,3.84,3.35,8.5C111.31,108.34,110,100.71,112.2,99.16Z"/><path class="cls-2" d="M117.83,33.86c3.08,4.41,2.81,6.11-1.15,9.11C113,39.35,113.17,37.61,117.83,33.86Z"/><path class="cls-2" d="M48.21,27.37c-2.19-4.46-1.33-6.22,3.9-7.95C53.52,24.62,53.07,25.54,48.21,27.37Z"/><path class="cls-2" d="M42.84,33.4c-3.13,3.68-5.22,3.72-8.73.14C37.75,29.84,39.7,29.8,42.84,33.4Z"/><path class="cls-2" d="M81.12,116.07c3.47,3.78,3.53,4.72.76,8.6C77.68,122.07,77.46,120.21,81.12,116.07Z"/><path class="cls-2" d="M98.78,93.5c-2.95,4.87-3.48,5.08-7.69,3.33C92.43,92,94.3,91.09,98.78,93.5Z"/><path class="cls-2" d="M99.89,49.52c4.89-1,5.38-.76,7.31,3.86C102.87,55.54,100.89,54.49,99.89,49.52Z"/><path class="cls-2" d="M37.29,66.26c3.38,3.55,3.38,4,.08,8.08C33.7,71.21,33.69,69.95,37.29,66.26Z"/><path class="cls-2" d="M31.65,82.87c-3.93,3.72-4.37,3.74-8.36.63C26.31,80,27.31,79.93,31.65,82.87Z"/><path class="cls-2" d="M120.32,97.37c3.39,3.45,3.41,4.26.17,8C116.8,102.16,116.79,101.28,120.32,97.37Z"/><path class="cls-2" d="M88.89,113c-3.92,3.47-4.29,3.47-7.83.32C84.23,110.08,85.16,110,88.89,113Z"/><path class="cls-2" d="M36.73,87.19c-3.78-3.53-3.83-3.85-1.27-7.29C39.42,82.49,39.57,83.2,36.73,87.19Z"/><path class="cls-2" d="M114.72,27.1c2.61,3.74,2.59,3.88-1,6.8C110.68,30.84,110.84,29.77,114.72,27.1Z"/><path class="cls-2" d="M35.73,94.2c-.55,4.73-.85,5-5.46,4.46C30.44,94.51,31,94,35.73,94.2Z"/><path class="cls-2" d="M28.72,70.51c-2.82,4.66-3.19,4.81-6.78,3C23.55,69.53,23.78,69.42,28.72,70.51Z"/><path class="cls-2" d="M46,41.1c2.79-4.47,3.22-4.61,6.7-2.55C50.62,42.37,50.62,42.37,46,41.1Z"/><path class="cls-2" d="M61.8,44.66c-4.87.4-5.41,0-5.65-4.23C60.39,40.14,60.62,40.3,61.8,44.66Z"/><path class="cls-2" d="M125.49,59.46c-4.24,2.35-4.65,2.28-7.49-1.11C121.52,56,122.2,56,125.49,59.46Z"/><path class="cls-2" d="M73.86,25.6c3.57-2.39,3.67-2.37,6.69.94C77.28,29.06,76.17,28.91,73.86,25.6Z"/><path class="cls-2" d="M62.53,97.6c-1.66.93-2.5.33-3.23-1.21-.9-1.9-.75-3.49,1-4.66C63.53,93,62.53,97.6,62.53,97.6Z"/><path class="cls-2" d="M89.19,119.12c.72,3.74.72,3.74-2.95,5.54C84.44,121.39,85.18,120,89.19,119.12Z"/><path class="cls-2" d="M50,50.47c-1.43,2.83-3,4.3-6,3C45.17,49.34,46.1,48.84,50,50.47Z"/><path class="cls-2" d="M55.33,93.75c-1.88,3.31-1.88,3.31-5.41,2.46C51.14,92.51,51.14,92.51,55.33,93.75Z"/><path class="cls-2" d="M109.92,40.18c-2.65-3.27-2.65-3.27-.25-6.13C112.31,36.63,112.31,36.63,109.92,40.18Z"/><path class="cls-2" d="M105.64,64.15c1.45-3.34,1.45-3.34,4.43-4C110.69,63.88,109.78,64.75,105.64,64.15Z"/><path class="cls-2" d="M106.76,96c-.19-1.53.37-2.75,1.94-2.92,2.12-.22,3.21,1.17,4,3.05-2.26,1.89-4.14.63-6-.22Z"/><path class="cls-2" d="M110.25,27.61c-4-2.23-4-2.35-1.79-5.64C111.19,23.19,111.19,25.18,110.25,27.61Z"/><path class="cls-2" d="M105.88,20.53c-1.6,3.52-1.6,3.52-5.43,3.14C101.62,19.94,101.62,19.94,105.88,20.53Z"/><path class="cls-2" d="M96.17,115.88c3.13.44,3.89,2,3.49,4.55C95.93,120.4,95.93,120.4,96.17,115.88Z"/><path class="cls-2" d="M75.78,33.77C72,33,72,33,72.19,29.25,74.65,29.62,75.89,30.79,75.78,33.77Z"/><path class="cls-2" d="M75.29,35.88c.39,4,.39,4-3,4.92C71.29,38.15,72.91,37.11,75.29,35.88Z"/><path class="cls-2" d="M88.91,115.75c3.6-.9,3.6-.9,4.74,2.56C91,119.43,89.88,117.9,88.91,115.75Z"/><path class="cls-2" d="M22.41,60.12c2.76-2.78,2.77-2.78,5.4-.42C25.63,62.21,25.63,62.21,22.41,60.12Z"/><path class="cls-2" d="M97.48,104.05c-4-1.08-4-1.08-3.11-4.93C96.66,99.78,98,101,97.48,104.05Z"/><path class="cls-2" d="M130.13,85.08c1.08,2.62,1,4.52-1.84,5.75C127.14,88.24,127.22,86.36,130.13,85.08Z"/><path class="cls-2" d="M43.58,31c-2.4-2-2.38-3.81-.9-6.08C45.4,26.6,45.31,28.4,43.58,31Z"/><path class="cls-2" d="M81.68,103.62c2.46,1.9,2.61,3.52.27,5.47C80.16,107.43,79.09,105.91,81.68,103.62Z"/><path class="cls-2" d="M46.37,70c2.46.5,3.48,1.82,3.07,4.35C45.92,73.61,45.92,73.61,46.37,70Z"/><path class="cls-2" d="M105.54,57c2.12-1.88,3.71-2.73,5.44-.14C109.49,59.68,107.81,58.77,105.54,57Z"/><path class="cls-2" d="M38.68,94.71c1.44,2.08,1.62,3.59,0,5.47C36.27,98.44,36.22,96.9,38.68,94.71Z"/><path class="cls-2" d="M68.79,23.7c1.78-2.6,1.78-2.6,4.94-2.2C73,24.46,71.15,24.22,68.79,23.7Z"/><path class="cls-2" d="M117.52,93.84c.79,2.78.22,4.26-2.23,5C114.24,96.35,114.52,94.69,117.52,93.84Z"/><path class="cls-2" d="M92,44.3c-2.64-2-2.76-3.58-.38-5.49C93.4,40.37,93.18,42,92,44.3Z"/><path class="cls-2" d="M42.24,78.53c-1.57-.12-3.26.81-4.77-.6-.3-1.72.84-2.28,2.24-2.26C41.52,75.7,42.24,78.53,42.24,78.53Z"/><path class="cls-2" d="M43.47,97.69C46,96.3,47.42,97,48.8,99.12,46.22,100.72,44.78,100,43.47,97.69Z"/><path class="cls-2" d="M48.68,54.4c1.14,3,1.14,3-.07,5.5C46.37,58.21,46.3,56.66,48.68,54.4Z"/><path class="cls-2" d="M80.57,96.9c1.77,3.07.25,4.13-2,5.2C77,99.56,78.52,98.43,80.57,96.9Z"/><path class="cls-2" d="M44.08,35.87c1,2.55,1,4.22-1.6,5.31C41.12,39,41.53,37.45,44.08,35.87Z"/><path class="cls-2" d="M42.25,61.29c-.21,2.73-.93,4.24-3.74,4.1C38.25,62.79,39.27,61.6,42.25,61.29Z"/><path class="cls-2" d="M37.1,101.88c-1.81,2.46-3.28,2.59-5,.48C33.41,100.33,34.9,100.54,37.1,101.88Z"/><path class="cls-2" d="M40.13,72.86c2.58-2.44,3.83,0,4.59,2.13C44.72,75,41.22,74.66,40.13,72.86Z"/><path class="cls-2" d="M72.39,122.47c2.64-1,3.73,0,4.46,2.05C74.46,125.53,73.13,125,72.39,122.47Z"/><path class="cls-2" d="M105.78,36.47c-.63,2.25-1.83,2.93-4.07,2.22C102.1,35.92,103.44,35.5,105.78,36.47Z"/><path class="cls-2" d="M54,86.71c2.53,1.72,2.53,1.72,2.27,4.24C53.9,90.64,53.5,89.27,54,86.71Z"/><path class="cls-2" d="M66,120.23c-.83,2.64-2.08,3.23-4.26,2.41C62.11,120.24,63.38,119.67,66,120.23Z"/><path class="cls-2" d="M130.7,55c2.66,1.25,2.66,1.25,2.29,3.86-2.78-.17-2.06-2.3-2.23-3.92Z"/><path class="cls-2" d="M69.14,119.62c2,2.34,1.57,3.51-.44,4.51C67,122.49,67.84,121.35,69.14,119.62Z"/><path class="cls-2" d="M110.06,105.66c-2.45.46-2.57.71-3.66-1.46C108.25,103.24,110.06,105.66,110.06,105.66Z"/><path class="cls-2" d="M121,85.27c.7.34,1.53.62,1.49,1.6,0,.81-.73,1.05-1.35,1a1.41,1.41,0,0,1-1.46-1.51C119.77,85.62,120.35,85.33,121,85.27Z"/><path class="cls-2" d="M120.75,51.24c-1.56-1.71-1.32-2.87-.26-4.28C122.14,48.25,122.17,49.44,120.75,51.24Z"/><path class="cls-2" d="M114.42,57.18c1.21.3,1.37.93,1.4,1.57a1.75,1.75,0,0,1-1.3,2.07C113.31,59.75,113.26,58.6,114.42,57.18Z"/><path class="cls-2" d="M45.08,47c-1.54-.49-2-1.22-2-2.31C45.13,44.59,45.13,44.59,45.08,47Z"/><path class="cls-2" d="M37.77,91.93c-2-.21-2.67-.9-2.66-2.51C37,88.86,37.55,89.82,37.77,91.93Z"/><path class="cls-2" d="M74.8,13c2,.19,2.74.87,2.5,2.27a.92.92,0,0,1-.74.5C75.07,15.67,75,14.6,74.8,13Z"/><path class="cls-2" d="M134,72.12c-1.31,1.12-2.18,1.18-3.16.27C131.44,70.54,132.4,70.89,134,72.12Z"/><path class="cls-2" d="M97.17,44.27c-.43,1.7-1.37,2.06-2.9,1.35C94.73,44,95.64,43.55,97.17,44.27Z"/><path class="cls-2" d="M52.23,56c-1.7-.8-1.69-1.66-.95-2.58a.89.89,0,0,1,.86-.12C53,54,53,54.92,52.23,56Z"/><path class="cls-2" d="M76.11,19.16c.77,0,1,.52,1.29,1.09a1.08,1.08,0,0,1-.59,1.54c-1,.42-1.45-.43-1.6-1.16A1.34,1.34,0,0,1,76.11,19.16Z"/><path class="cls-2" d="M107.83,99.32c1.53-.45,1.73.07,1.87.51a1.35,1.35,0,0,1-.58,1.71c-.67.28-1.23-.14-1.3-1S107.91,99.3,107.83,99.32Z"/><path class="cls-2" d="M100.6,19.34c-1.12-.09-1.76-.43-1.77-1.4a.7.7,0,0,1,.91-.75C100.69,17.4,100.91,18.1,100.6,19.34Z"/><path class="cls-2" d="M43.14,60.55c.32-1,.94-1.67,2-1.39a.76.76,0,0,1,.35,1.15A1.47,1.47,0,0,1,43.14,60.55Z"/><path class="cls-2" d="M45.35,56.76c-.16.29-.26.72-.45.76a1.21,1.21,0,0,1-1.44-.95c-.05-.15.23-.56.43-.62C44.64,55.69,45,56.17,45.35,56.76Z"/><path class="cls-2" d="M92,122.59c.56-1.18,1.11-1.91,2.24-1.22a.86.86,0,0,1,.26.8C94,123.29,93.19,123.27,92,122.59Z"/><path class="cls-2" d="M86.19,23.56c.39-.9.81-1.75,2-1.16a.84.84,0,0,1,.24.79C87.88,24.27,87.09,24.3,86.19,23.56Z"/><path class="cls-2" d="M112.21,93.53c.32-1.07.83-1.83,2.08-1.34a.88.88,0,0,1,.3.8C114.08,94.28,113.19,94.12,112.21,93.53Z"/><path class="cls-2" d="M47.29,74.85a1.78,1.78,0,0,1-2.43,1.65C44.81,75.78,46,74.72,47.29,74.85Z"/><path class="cls-2" d="M121.88,37.76c.18-.44.39-.88,1-.64.44.18.89.47.8,1s-.39.86-1,.64S121.86,38.33,121.88,37.76Z"/><path class="cls-2" d="M32.51,70.84c.2.63-.19.92-.69,1a1,1,0,0,1-.78-.44.79.79,0,0,1,.35-1.19C31.86,70,32.28,70.37,32.51,70.84Z"/><path class="cls-2" d="M124.64,98.8c-.15-.11-1.53-.17-1.75-.33a9.88,9.88,0,0,1,2-1.06c.62-.29.78.26.72.7A.74.74,0,0,1,124.64,98.8Z"/></g><path class="cls-3" d="M29.8,138.2c-4.48,0-6.48,3.32-6.48,6.61s2,6.66,6.48,6.66a6.22,6.22,0,0,0,4.85-2,7,7,0,0,0,1.63-4.57A6.77,6.77,0,0,0,34.43,140,6.36,6.36,0,0,0,29.8,138.2Zm5.29,6.63c0,2.65-1.66,5.49-5.29,5.49s-5.26-2.85-5.28-5.49a5.61,5.61,0,0,1,1.51-4,5.17,5.17,0,0,1,3.77-1.43C33.45,139.35,35.09,142.1,35.09,144.83Z"/><path class="cls-3" d="M54,145.27a3.91,3.91,0,0,0,1.08-2.82,4,4,0,0,0-4.27-4H45.19v12.85h1.22v-4.77h3.26L54,151.21l0,0h1.62l-4.45-4.83A4.19,4.19,0,0,0,54,145.27Zm-7.64-5.72h4.45a2.94,2.94,0,0,1,2.15.82,2.89,2.89,0,0,1,.8,2.06c0,1.86-1.11,2.88-3.06,2.88H46.41Z"/><path class="cls-3" d="M69.17,138.4l-5.69,12.68-.08.18h1.32l1.37-3.1h7.36l1.39,3.1h1.32L70.39,138.4ZM73,147H66.58l3.19-7.24Z"/><polygon class="cls-3" points="93.93 148.6 85.67 138.45 85.64 138.4 85.04 138.4 85.04 151.26 86.26 151.26 86.26 141.07 94.54 151.21 94.57 151.26 95.14 151.26 95.14 138.4 93.93 138.4 93.93 148.6"/><path class="cls-3" d="M110.56,145.51H115v3.35a5.53,5.53,0,0,1-3.71,1.39,5.14,5.14,0,0,1-5.44-5.4,5.55,5.55,0,0,1,1.53-4,5.36,5.36,0,0,1,3.91-1.49,5.76,5.76,0,0,1,4,1.58l.09.09.73-.8-.08-.08a6.93,6.93,0,0,0-9.51-.08,6.57,6.57,0,0,0-1.81,4.8,6.24,6.24,0,0,0,6.63,6.55,6.67,6.67,0,0,0,4.84-2.07l0,0v-4.89h-5.56Z"/><polygon class="cls-3" points="126.54 150.07 126.54 145.35 133.92 145.35 133.92 144.22 126.54 144.22 126.54 139.57 134.28 139.57 134.28 138.4 125.34 138.4 125.34 151.26 134.5 151.26 134.5 150.07 126.54 150.07"/><polygon class="cls-3" points="44.89 162.03 49.45 162.03 49.45 173.75 50.67 173.75 50.67 162.03 55.22 162.03 55.22 160.91 44.89 160.91 44.89 162.03"/><path class="cls-3" d="M72.89,167.77A3.91,3.91,0,0,0,74,164.95a4,4,0,0,0-4.27-4H64v12.85h1.22V169h3.26l4.32,4.73,0,0h1.62L70,168.92A4.19,4.19,0,0,0,72.89,167.77ZM65.25,162H69.7a2.94,2.94,0,0,1,2.15.82,2.89,2.89,0,0,1,.8,2.06c0,1.86-1.11,2.88-3.06,2.88H65.25Z"/><polygon class="cls-3" points="84.09 167.84 91.47 167.84 91.47 166.71 84.09 166.71 84.09 162.06 91.83 162.06 91.83 160.9 82.89 160.9 82.89 173.75 92.05 173.75 92.05 172.56 84.09 172.56 84.09 167.84"/><polygon class="cls-3" points="102.34 167.84 109.73 167.84 109.73 166.71 102.34 166.71 102.34 162.06 110.09 162.06 110.09 160.9 101.14 160.9 101.14 173.75 110.3 173.75 110.3 172.56 102.34 172.56 102.34 167.84"/><path class="cls-2" d="M27.92,203.12A1.87,1.87,0,0,0,29,201.41c0-1.71-1.49-2.32-2.77-2.32H22.8v8.3h3.43c1.94,0,3-.81,3-2.23A2.17,2.17,0,0,0,27.92,203.12Zm-1.69-3.26c1,0,1.93.48,1.93,1.54s-1,1.33-1.85,1.33H23.67v-2.87Zm-2.56,3.71h2.64c.49,0,2.09.11,2.11,1.58,0,.92-.74,1.39-2.19,1.39H23.67Z"/><path class="cls-2" d="M37.71,199.08,34,207.39h.94l.87-2h4.65l.89,2h.94l-3.72-8.3Zm2.39,5.5H36.15l2-4.47Z"/><path class="cls-2" d="M53.09,203.55a2.54,2.54,0,0,0,.7-1.84A2.6,2.6,0,0,0,51,199.08H47.35v8.3h.87v-3h2l2.75,3,0,0h1.16l-2.85-3.09A2.68,2.68,0,0,0,53.09,203.55Zm-4.87-3.64H51a1.84,1.84,0,0,1,1.34.51,1.8,1.8,0,0,1,.5,1.28A1.69,1.69,0,0,1,51,203.5H48.23Z"/><path class="cls-2" d="M71.62,204.9a6.15,6.15,0,0,0,.38-1.52H71q-.06.4-.12.62t-.21.67l-1.5-1.8a4.73,4.73,0,0,0,1-.8,2.1,2.1,0,0,0,.5-1.39,1.6,1.6,0,0,0-.48-1.17,1.79,1.79,0,0,0-1.34-.49,2,2,0,0,0-1.44.52,1.77,1.77,0,0,0-.54,1.32,2,2,0,0,0,.18.79,4.24,4.24,0,0,0,.7,1,6.17,6.17,0,0,0-1.29,1,2.25,2.25,0,0,0-.57,1.57,2.37,2.37,0,0,0,.58,1.56,2.3,2.3,0,0,0,1.86.69,2.9,2.9,0,0,0,1.53-.4,4.09,4.09,0,0,0,.84-.73l.77.94h1.3l-1.46-1.78Q71.33,205.62,71.62,204.9ZM68,200.28a.91.91,0,0,1,.86-.42.83.83,0,0,1,.65.26.9.9,0,0,1,.24.63,1.27,1.27,0,0,1-.33.85,4.22,4.22,0,0,1-.73.61,6.12,6.12,0,0,1-.63-.81,1.26,1.26,0,0,1-.19-.66A.91.91,0,0,1,68,200.28Zm1.5,6a1.94,1.94,0,0,1-1.07.29,1.69,1.69,0,0,1-1-.35,1.18,1.18,0,0,1-.48-1,1.5,1.5,0,0,1,.37-1,5.63,5.63,0,0,1,1-.81l1.86,2.27A2.34,2.34,0,0,1,69.49,206.28Z"/><path class="cls-2" d="M87.38,203.72h2.81v2.07a3.49,3.49,0,0,1-2.33.86,3.24,3.24,0,0,1-3.43-3.41,3.5,3.5,0,0,1,1-2.52,3.38,3.38,0,0,1,2.47-.94,3.63,3.63,0,0,1,2.5,1l.09.09.52-.58-.08-.08a4.48,4.48,0,0,0-6.14-.05,4.25,4.25,0,0,0-1.17,3.1,4,4,0,0,0,4.28,4.23A4.3,4.3,0,0,0,91,206.16l0,0v-3.19H87.38Z"/><path class="cls-2" d="M102.45,203.55a2.54,2.54,0,0,0,.7-1.84,2.6,2.6,0,0,0-2.77-2.63H96.71v8.3h.87v-3h2l2.75,3,0,0h1.16l-2.85-3.09A2.68,2.68,0,0,0,102.45,203.55Zm-4.87-3.64h2.8a1.84,1.84,0,0,1,1.34.51,1.8,1.8,0,0,1,.5,1.28,1.69,1.69,0,0,1-1.91,1.8H97.58Z"/><rect class="cls-2" x="108.78" y="199.08" width="0.86" height="8.3"/><polygon class="cls-2" points="116.63 199.08 115.76 199.08 115.76 207.39 121.16 207.39 121.16 206.55 116.63 206.55 116.63 199.08"/><polygon class="cls-2" points="127.32 206.55 127.32 199.08 126.45 199.08 126.45 207.39 131.85 207.39 131.85 206.55 127.32 206.55"/><rect class="cls-2" x="21.17" y="186.2" width="112.83" height="0.5"/></svg>